<?xml version="1.0" encoding="UTF-8"?>
<!DOCTYPE svg PUBLIC "-//W3C//DTD SVG 1.1//EN" "http://www.w3.org/Graphics/SVG/1.1/DTD/svg11.dtd">
<svg xmlns="http://www.w3.org/2000/svg" version="1.1" width="512px" height="512px" style="shape-rendering:geometricPrecision; text-rendering:geometricPrecision; image-rendering:optimizeQuality; fill-rule:evenodd; clip-rule:evenodd" xmlns:xlink="http://www.w3.org/1999/xlink">
<g><path style="opacity:0.998" fill="#000000" d="M 87.5,-0.5 C 199.5,-0.5 311.5,-0.5 423.5,-0.5C 472.5,9.16667 501.833,38.5 511.5,87.5C 511.5,199.5 511.5,311.5 511.5,423.5C 501.833,472.5 472.5,501.833 423.5,511.5C 311.5,511.5 199.5,511.5 87.5,511.5C 38.5,501.833 9.16667,472.5 -0.5,423.5C -0.5,311.5 -0.5,199.5 -0.5,87.5C 9.16667,38.5 38.5,9.16667 87.5,-0.5 Z"/></g>
<g><path style="opacity:1" fill="#fbfbfb" d="M 300.5,76.5 C 314.504,76.3334 328.504,76.5001 342.5,77C 345.333,78.5 347.5,80.6667 349,83.5C 377.333,195.5 405.667,307.5 434,419.5C 435.833,431 431,435.833 419.5,434C 306.772,398.535 194.105,362.868 81.5,327C 79.6217,325.457 78.1217,323.624 77,321.5C 79.0549,245.619 108.555,182.786 165.5,133C 204.66,100.224 249.66,81.3907 300.5,76.5 Z"/></g>
<g><path style="opacity:1" fill="#030303" d="M 298.5,97.5 C 309.172,97.3335 319.839,97.5002 330.5,98C 332.397,104.757 334.064,111.59 335.5,118.5C 251.806,115.256 187.973,148.923 144,219.5C 126.899,249.571 118.399,281.904 118.5,316.5C 112.129,314.824 105.796,312.99 99.5,311C 98.4844,310.481 97.8178,309.647 97.5,308.5C 105.055,234.85 138.722,176.684 198.5,134C 228.964,113.792 262.297,101.625 298.5,97.5 Z"/></g>
<g><path style="opacity:1" fill="#020202" d="M 302.5,139.5 C 315.524,139.374 328.524,139.874 341.5,141C 343.713,147.684 345.379,154.518 346.5,161.5C 327.34,163.677 314.84,174.01 309,192.5C 305.473,217.965 315.639,235.132 339.5,244C 348.742,245.257 357.742,244.423 366.5,241.5C 381.646,297.087 395.646,352.753 408.5,408.5C 360.792,393.431 313.126,378.264 265.5,363C 269.312,343.295 263.312,327.295 247.5,315C 227.091,304.172 208.591,306.672 192,322.5C 188.642,327.217 185.809,332.217 183.5,337.5C 169.219,332.846 154.886,328.346 140.5,324C 139.72,252.807 169.72,198.807 230.5,162C 253.074,149.53 277.074,142.03 302.5,139.5 Z"/></g>
<g><path style="opacity:1" fill="#020202" d="M 343.5,182.5 C 346.5,182.5 349.5,182.5 352.5,182.5C 354.872,194.655 357.872,206.655 361.5,218.5C 361.41,220.425 360.41,221.592 358.5,222C 338.027,225.863 328.527,217.363 330,196.5C 332.687,189.981 337.187,185.314 343.5,182.5 Z"/></g>
<g><path style="opacity:1" fill="#fbfbfb" d="M 214.5,203.5 C 240.076,200.69 256.909,211.356 265,235.5C 268.302,261.081 257.802,277.915 233.5,286C 208.019,289.343 191.185,278.843 183,254.5C 179.82,228.832 190.32,211.832 214.5,203.5 Z"/></g>
<g><path style="opacity:1" fill="#020202" d="M 217.5,224.5 C 238.345,223.504 246.845,233.17 243,253.5C 237.482,263.672 228.982,267.505 217.5,265C 203.395,257.683 199.895,246.849 207,232.5C 209.94,228.963 213.44,226.297 217.5,224.5 Z"/></g>
<g><path style="opacity:1" fill="#fbfbfb" d="M 319.5,266.5 C 345.076,263.69 361.909,274.356 370,298.5C 373.302,324.081 362.802,340.915 338.5,349C 312.981,352.328 296.148,341.828 288,317.5C 284.82,291.832 295.32,274.832 319.5,266.5 Z"/></g>
<g><path style="opacity:1" fill="#020202" d="M 322.5,287.5 C 343.345,286.504 351.845,296.17 348,316.5C 342.482,326.672 333.982,330.505 322.5,328C 308.395,320.683 304.895,309.849 312,295.5C 314.94,291.963 318.44,289.297 322.5,287.5 Z"/></g>
<g><path style="opacity:1" fill="#060606" d="M 217.5,329.5 C 237.164,328.161 245.831,337.161 243.5,356.5C 230.597,352.087 217.597,348.087 204.5,344.5C 206.336,337.331 210.669,332.331 217.5,329.5 Z"/></g>
</svg>
